<?xml version="1.0" standalone="no"?>
<!DOCTYPE svg PUBLIC "-//W3C//DTD SVG 1.1//EN" "http://www.w3.org/Graphics/SVG/1.1/DTD/svg11.dtd" >
<svg xmlns="http://www.w3.org/2000/svg">
<metadata></metadata>
<defs>
<font id="maxine_scriptregular" horiz-adv-x="1139" >
<font-face units-per-em="2048" ascent="1638" descent="-410" />
<missing-glyph horiz-adv-x="399" />
<glyph horiz-adv-x="0" />
<glyph unicode="&#xd;" horiz-adv-x="569" />
<glyph unicode=" "  horiz-adv-x="399" />
<glyph unicode="&#x09;" horiz-adv-x="399" />
<glyph unicode="&#xa0;" horiz-adv-x="399" />
<glyph unicode="!" horiz-adv-x="727" d="M147 -116q66 160 260 160l-100 -160v-20l100 20h20l40 -40q0 -80 -280 -120l-40 60v100zM207 384v100q50 1020 220 1020l20 -20l40 -40h20v-40h-20l-20 20h-20l-60 -220l20 -20v-20q-80 -270 -80 -540v-260l40 -60l-20 -20h-20z" />
<glyph unicode="&#x22;" horiz-adv-x="472" d="M113 851q-40 159 2 369q77 47 115 -12l-47 -333l-68 -38zM287 851q-39 159 3 369q76 47 114 -12l-47 -334l-67 -37z" />
<glyph unicode="#" />
<glyph unicode="$" />
<glyph unicode="%" horiz-adv-x="1821" />
<glyph unicode="&#x26;" horiz-adv-x="1366" />
<glyph unicode="'" horiz-adv-x="196" d="M54 851q-40 159 2 369q77 47 115 -12l-47 -333l-68 -38z" />
<glyph unicode="(" horiz-adv-x="682" />
<glyph unicode=")" horiz-adv-x="682" />
<glyph unicode="*" horiz-adv-x="797" />
<glyph unicode="+" horiz-adv-x="1196" />
<glyph unicode="," horiz-adv-x="305" d="M109 -39q-40 159 2 369q77 47 115 -12l-47 -333l-68 -37z" />
<glyph unicode="-" horiz-adv-x="721" d="M43 477v60l29 40h515l71 20l29 -60v-20l-29 -60l-71 20h-458l-72 -20z" />
<glyph unicode="." horiz-adv-x="533" d="M51 108q58 169 204 237h51l51 -53v-53q-104 4 -156 -118l156 22l51 17v-26q0 -79 -229 -132h-51z" />
<glyph unicode="/" horiz-adv-x="878" d="M99 -108l437 1225l114 419l26 16l58 -18l24 -59l-22 -68l-49 -86l12 -29l-7 -23l-27 -17l-54 -235l-67 -206q-116 -361 -193 -469l12 -29l-57 -109l-14 -46l-92 -349l-26 -17l-58 19q-39 12 -17 81z" />
<glyph unicode="0" horiz-adv-x="1346" d="M38 409q0 447 660 740l180 40q440 -53 440 -420q-112 -389 -380 -580q-153 -120 -480 -180q-400 85 -400 320zM138 449q0 -187 260 -300v-20h60q312 66 500 220q220 297 220 440q0 189 -260 300q-269 0 -720 -420z" />
<glyph unicode="1" horiz-adv-x="556" d="M70 997v20l40 40h120l120 20l60 -20v-60l-20 -180l20 -60h-20l20 -20l-20 -100v-140l-40 -340l40 -100l-80 -60l-60 60v60l40 380v180l20 20l-20 20v240h-20l-120 -20z" />
<glyph unicode="2" horiz-adv-x="1062" d="M-22 58v40q149 0 460 240q400 217 400 400v20q0 300 -360 300q-135 0 -320 -120h-80v60q200 180 480 180q400 -106 400 -400v-20q0 -294 -580 -580v-20l240 20h100l180 -20l100 20l40 -60l-60 -80l-380 40q-405 -40 -500 -120q-80 0 -80 100h-40z" />
<glyph unicode="3" horiz-adv-x="1119" d="M20 208l40 40h60q120 -100 320 -100q520 51 520 360v80q0 180 -300 180v20l-260 -100h-60l-60 60q0 75 400 260v20l-80 20q-160 -13 -160 -40q-280 26 -280 60l60 80h160l20 -20l20 20h20l60 -20l120 20l80 -20l20 20h20l20 -20h20l80 20l60 -20v-80q0 -40 -260 -140v-20 q420 0 420 -340q0 -383 -560 -520l-60 20l-120 -20q-308 132 -320 180z" />
<glyph unicode="4" horiz-adv-x="1233" d="M35 363l520 420q80 13 520 480l60 -40l-20 -600v-200l60 20q80 -30 80 -60q0 -80 -140 -80l-20 -80l20 -220v-140l-60 -60l-60 20l-20 -20l-20 20v20l20 60l-20 180l20 220l-640 -20h-60l-200 -20zM275 403l140 -20l580 20v40l-20 200h20l-20 20l20 100v40l-20 80l20 80 v60z" />
<glyph unicode="5" horiz-adv-x="1179" d="M21 125v140l40 40h20q40 0 60 -160l160 -80l20 20h20l20 -20h20q560 133 560 300q50 0 80 220q0 148 -260 240h-40q-439 -100 -520 -180h-60l-40 40l140 480l140 -20l220 20l200 -20l320 20l20 -20v-60l-40 -40h-20l-80 20l-140 -20h-120l-180 20q-280 -27 -280 -120 l-20 -120h20l420 120h80q360 -103 360 -360q-113 -480 -320 -480q-178 -140 -540 -140q-153 0 -260 160z" />
<glyph unicode="6" horiz-adv-x="1187" d="M27 290q0 308 380 840l80 60h20l40 -40v-20q-209 -209 -300 -480q325 240 620 240q120 -23 280 -220q0 -485 -460 -680q-90 -40 -260 -40h-40q-221 0 -340 320zM147 350q84 -280 240 -280h60q366 0 520 300l60 240v20q-108 140 -220 140q-325 0 -640 -400z" />
<glyph unicode="7" horiz-adv-x="853" d="M37 1017v80l20 20v20l560 -40l160 40l40 -80q-213 -333 -220 -460v-20h20l180 20l20 -20q-46 -120 -160 -120l-80 20h-20q-47 0 -220 -560l-60 -60h-20q-40 0 -60 120q74 81 240 540l-20 20h-140l-80 -60l-60 60v20q0 60 180 100l180 -40v20l140 360h-160l-260 20 l-160 -20z" />
<glyph unicode="8" horiz-adv-x="1219" d="M21 213l20 20v20l-20 60l120 140l180 160q-280 92 -280 240v80q173 240 440 240q260 0 260 -60v-20l-60 -80l-240 40q-280 -48 -280 -220q92 -80 280 -80h80q285 285 520 440h40l40 -40v-40l-420 -360q480 -55 480 -300v-60q0 -340 -640 -540l-180 -20q-271 0 -340 380z M161 113q97 -160 180 -160q555 0 720 440q-49 240 -340 240h-100q-205 0 -460 -460v-60z" />
<glyph unicode="9" horiz-adv-x="1251" d="M27 485q0 275 500 560q178 100 280 100h120q239 0 280 -320q0 -278 -380 -900q-41 -120 -80 -120l-80 60q0 84 280 480q140 292 140 520q0 160 -240 160q-385 0 -680 -440l-20 -80q0 -147 260 -180h160l320 80l20 -20v-20q0 -95 -400 -160h-180q-210 0 -300 280z" />
<glyph unicode=":" horiz-adv-x="569" />
<glyph unicode=";" horiz-adv-x="569" />
<glyph unicode="&#x3c;" horiz-adv-x="1196" />
<glyph unicode="=" horiz-adv-x="1196" />
<glyph unicode="&#x3e;" horiz-adv-x="1196" />
<glyph unicode="?" horiz-adv-x="1345" d="M73 924v120q103 220 520 360l280 40v-20l20 20h80q233 -54 320 -220v-60q0 -272 -480 -540l-200 -220v-40l140 20h20l40 -40v-20q0 -60 -260 -60l-60 60v100q124 220 600 520l100 200q-6 79 -220 200l-20 -20h-20q-493 0 -700 -260l-20 -20l20 -60h20v-40zM453 -156 q46 129 160 180h40l40 -40v-40q-59 0 -100 -80l100 20h40v-20q0 -60 -180 -100h-40z" />
<glyph unicode="@" horiz-adv-x="2079" />
<glyph unicode="A" horiz-adv-x="1001" d="M-97 45q0 107 128 176l11 -11q9 6 18 11l16 -16v-16l-4 -6v-3q43 53 103 153v5q-12 5 -24 15q-32 13 -56 60v16l32 32l22 -8l7 8l104 -39q237 455 363 967l-16 16v16l32 32h16l7 -6l6 6h16l32 -32v-192q0 -386 448 -1328q64 -8 64 -48v-16l-4 -4v-12l-32 -32h-32 q-6 8 -13 16h-12q-101 119 -307 612l-3 -3q0 -1 -1 -2q0 -15 -17 -29q-68 -54 -399 -82h-96q-240 -320 -336 -320l-16 17q-4 -1 -9 -1zM364 413h64l11 -11l317 66l43 9q-117 325 -167 564q-30 -176 -268 -628z" />
<glyph unicode="B" horiz-adv-x="1067" d="M-109 1121v28q19 43 152 108l-8 8v28l80 80q10 -2 20 -10l10 10q30 -6 59 -69q79 24 359 37q2 -1 5 -1q12 0 25 1q272 -72 272 -256v-12q-15 -62 -120 -183q296 -96 296 -285v-12q0 -288 -448 -544l-304 -64l-4 6l-26 -6l-48 64l5 5l-5 7l32 32l24 -6l6 6l50 -13 q232 50 448 205q110 161 160 318q-11 112 -243 208l-367 -122h-16q-3 1 -5 3l-9 -3h-16q-64 33 -64 80v12q0 98 416 144q112 122 112 192v4q-56 119 -229 127l-61 -15l-6 6l-24 -6l-14 14q-202 -42 -244 -78l32 -1284l16 -48l-3 -2l3 -10l-48 -32h-16l-6 6l-8 -6h-16l-32 32 l-32 1296v32h-2l-112 -48l-9 9l-21 -9z" />
<glyph unicode="C" horiz-adv-x="1263" d="M52 347v98q37 241 256 512q408 368 624 368h98q176 0 176 -144q-1 -3 -2 -7q2 -13 2 -27q-43 -176 -144 -176l-4 4q-14 -4 -30 -4l-16 16v16q4 5 7 11l-7 7v16q61 87 75 143l-103 30q-298 -22 -690 -479q-122 -224 -128 -398q11 -262 358 -272q286 15 648 224h16l7 -7 q5 4 11 7h16l32 -32v-32q-1 0 -1 -1l1 -1v-32q-389 -256 -800 -256l-1 1q-16 -1 -33 -1l-50 26l-28 -10l-18 6l-16 -6q-256 70 -256 400z" />
<glyph unicode="D" horiz-adv-x="1173" d="M-63 1048v53q222 208 352 208v-2q13 2 26 2v-8q140 40 342 40h26q448 -159 448 -528v-69q0 -248 -240 -464q-59 -176 -602 -413l4 13q-15 -6 -30 -13l10 26q-5 -2 -10 -5l27 92q441 179 671 561q62 83 64 259q-5 306 -397 439l-409 -63v-747l16 -480v-21l-1 -85 q-31 -13 -63 -27l-8 8l-18 -8l-16 16v192l-16 176l2 2l-2 19l14 14l-14 141v133l15 272l-15 75l1 15l-1 6l16 224v3l-134 -104l-9 13l-17 -13z" />
<glyph unicode="E" horiz-adv-x="963" d="M-43 1117v32q0 57 432 144l320 32q5 -1 11 -1l14 1q144 -19 144 -48v-48q0 -32 -96 -48v5q-12 -3 -25 -5v32h-80l-3 4l-4 -4h-176q-115 0 -302 -79l14 -97v-160l-14 -167q231 76 661 167l4 -4q11 2 21 4l16 -16v-80l-32 -32l-20 5l-5 -5l-55 14q-608 -94 -608 -286v-176 l16 -144l-1 -7l1 -9l-16 -112v-16l42 -11q29 27 317 91q436 272 480 272l5 -5q14 5 20 5l16 -16v-64l-544 -320l-432 -144h-21v2l-4 -2h-21l1 16h-1l7 84l14 -4l16 16v320l-16 64q1 5 1 11q47 394 47 767l-39 -26h-57z" />
<glyph unicode="F" horiz-adv-x="802" d="M-100 1137q0 6 7 13l-7 8q0 44 384 160q185 64 384 80l2 -2q11 1 23 2l12 -12l59 12h89l64 -64v-69l-128 -144q-11 0 -19 8l-6 -8q-32 0 -32 64h-32v16l4 5h-4v16l42 57q-476 -36 -481 -110l-16 -80v-310l519 107l3 -4l22 4l48 -64q0 -7 -6 -13l6 -8q0 -58 -480 -112 q-128 -50 -128 -80v-43l16 -64l-2 -11l2 -10l-28 -127l12 -12v-372l-32 -32h-57l-16 16h-16l1 20h-1l16 240v11l-16 48l3 13l-3 8l16 80v213l-103 -26l-5 5l-20 -5l-32 32v53q0 48 176 80v395l-16 16v5l-151 -69l-6 9l-19 -9z" />
<glyph unicode="G" horiz-adv-x="1159" d="M-1 437v17q23 241 192 448q372 368 576 368q0 27 112 32h101q128 -12 128 -112v-17q0 -104 -96 -160h-16l-2 2q-1 -1 -3 -2h-16l-32 32v33q41 58 47 111h-15l-55 14q-388 -69 -388 -174q-127 0 -368 -368l-64 -223q8 -274 288 -352h43q384 115 612 430 q-114 -10 -463 -191l-6 8q-7 -4 -15 -8l-48 64v33q0 32 96 48v-4q10 2 21 4v-5q250 125 571 181l2 -3q10 1 19 3l32 -48v-33q-506 -575 -768 -575h-133q-352 86 -352 447z" />
<glyph unicode="H" horiz-adv-x="999" d="M23 485q3 4 7 8l-7 9q80 92 80 272v576h65q32 -143 32 -384v-315q141 42 431 187q192 44 192 80v416l32 32h33q48 -16 48 -96v-33l-12 -12l12 -35l-4 -4l4 -13l-13 -13l13 -66v-65l-15 -59q8 -36 63 -36l-16 -16q7 -1 16 -1l-15 -15l31 -32q0 -8 -2 -15l2 -2 q0 -48 -80 -48l-16 -160v-15h16l-2 -17h2l-16 -160v-208l-15 -242l15 -45q-1 -3 -3 -7l3 -9q-24 -64 -48 -64l-5 4q-6 -4 -12 -4l-48 32l1 16h-1l31 847h-14q-213 -40 -544 -224l-64 -64l-16 -552l-48 -32l-6 7l-11 -7l-48 48l1 15l-1 2l15 264l-15 15v33l29 100z" />
<glyph unicode="I" horiz-adv-x="526" d="M176 -69l41 1038l-21 346l21 19h60l41 -38v-58l-20 -77l20 -19v-19l-20 -20l20 -192v-173q0 -303 -41 -404l21 -19l-21 -96v-38l21 -288l-21 -20h-60q-41 0 -41 58z" />
<glyph unicode="J" horiz-adv-x="865" d="M17 174v21q110 480 256 480v-3q10 3 21 3v-53q-170 -255 -176 -391q7 -249 314 -291q143 14 273 287l32 318q-6 225 -102 768l6 6q-3 7 -6 15l16 16h53q90 0 134 -771q-1 -7 -1 -13q0 -4 1 -8q-51 -656 -240 -656q0 -36 -144 -64h-101q-336 59 -336 336z" />
<glyph unicode="K" horiz-adv-x="937" d="M57 86l3 16h-3l16 80v16l15 337l-31 31v32l42 70l-10 10l3 13l-3 3l16 80v144l8 8l-8 8v304l8 8l-8 8v48l48 48l11 -10l10 10l48 -48l-2 -14l2 -2l-14 -130l14 -14l-2 -14l2 -2l-16 -112v-80l16 -64l-2 -8l2 -8l-16 -64v-82q460 306 747 578h16l2 -2q2 1 3 2h16l32 -32 l-8 -8l8 -8q-206 -232 -792 -650q130 -151 616 -454q25 -50 272 -240l-9 -9q4 -3 9 -7l-64 -64h-16q-1 2 -3 3l-2 -3h-16q-325 325 -816 624v32h-11l-16 -240v-64l16 -64l-2 -8l2 -8q-21 -80 -48 -80h-37q-32 0 -32 80h-16z" />
<glyph unicode="L" horiz-adv-x="811" d="M79 -6l1 11l-1 1l16 160v131l-16 96l2 4l-2 9q32 72 32 208v259l-16 64q1 2 2 5l-2 8q32 69 32 256v16l10 10l-10 9v61l32 32h57l32 -32l-2 -11l2 -2l-47 -299l15 -136l-1 -5l1 -8l-15 -91l15 -152v-13q0 -149 -28 -159l12 -36v-45h-14l14 -99v-160q548 15 642 69 q9 5 14 11l48 -48v-45l-32 -32h-16l-4 5l-5 -5h-16l-11 12q-202 -44 -572 -59l-64 -47h-16l-3 3l-6 -4h-16z" />
<glyph unicode="M" horiz-adv-x="1548" d="M29 230l2 15l-2 10l30 285l-14 42q1 11 1 21l-1 4q43 768 96 768h32q38 0 112 -320l464 -896h16q0 380 720 1312h32l48 -32q-2 -11 -3 -23l3 -2q-48 -324 -48 -688v-144l-15 -148l63 -723l-2 -1l2 -23l-16 -16h-48q-80 0 -80 687v377q0 319 29 506l-13 13 q-497 -709 -576 -1120v-143l-32 -32h-48q-113 124 -416 703q-176 345 -176 432h-16v-16l-30 -349l14 -58v-137l-3 -3l3 -4l-3 -22l3 -3l-16 -112v-135l16 -240l-2 -2l2 -22l-16 -16h-32q-42 0 -80 255z" />
<glyph unicode="N" horiz-adv-x="1066" d="M44 984h1l-1 16l2 14l-2 2q15 118 43 127l-43 129l4 4l-4 12l16 16h68q48 0 64 -176q292 -729 464 -832q116 -209 275 -356q-55 278 -55 452v208l13 51l-13 13v32q38 401 144 592h52l32 -32l-4 -12l4 -4q-126 -348 -128 -752l16 -48l-4 -4l4 -12l-16 -16v-16 q15 -260 45 -300q1 -2 3 -4l-13 -53q46 -83 77 -282l-2 -2l2 -14l-16 -16h-68q-233 165 -416 479q-175 142 -430 730l-12 -37l14 -101v-144l16 -240h-1l1 -16l-2 -14l2 -2l-16 -112v-112l16 -64l-2 -8l2 -8q-21 -95 -48 -95l-7 6q-6 -6 -13 -6l-16 15h-16z" />
<glyph unicode="O" horiz-adv-x="1204" d="M34 471v16q0 361 464 688q196 80 368 96q3 -1 6 -3q14 2 27 3q176 -76 176 -192v-80l-48 -48h-16q-6 0 -11 5l-6 -5h-16q-32 0 -32 144q-61 58 -118 63q-364 -13 -617 -463l-64 -224q5 -290 208 -384h79q219 0 560 368q192 289 192 368v112q0 210 -256 368v16h49 q258 0 336 -368v-48q0 -399 -592 -848l-352 -79l-12 4l-21 -5q-288 86 -288 448z" />
<glyph unicode="P" horiz-adv-x="860" d="M-110 991v16q167 205 544 272l176 32q8 -1 17 -2l9 2q336 -32 336 -160v-85q0 -224 -336 -384q0 -65 -336 -144l-5 5q-10 -2 -21 -5l-32 32v16q0 2 1 4l-1 1v16q0 37 224 96q387 209 400 373q-11 115 -272 118q-164 -3 -406 -112l-15 -370l15 -169l-1 -9l1 -12l-14 -109 l14 -14v-16l-1 -4l1 -1v-16l-14 -86l14 -101l-3 -3l3 -18l-16 -16l3 -88v-84l-13 -54l13 -54l-4 -4l4 -16l-32 -32l-13 13l-13 -13l-48 48v68l6 6l-6 6l-3 300v21l13 52l-13 39l1 18l-1 3l31 681q-35 -17 -116 -126h-16l-6 6l-4 -6h-16l-48 48v16l2 2z" />
<glyph unicode="Q" horiz-adv-x="1204" d="M-9 472v7q0 318 362 664q182 109 349 150q14 0 24 -1l10 2h3q47 0 47 -27q0 -4 -1 -7q2 -10 -4 -24q-18 -47 -78 -56q-376 -57 -564 -555l-29 -224l-1 -7q43 -283 242 -357q22 22 44 45l16 2l11 -9l7 7l15 3l43 -32q203 58 464 441q135 290 135 379v6v7l-17 111 q-31 207 -308 325l-2 16h1l-1 12l15 3q24 4 46 4q9 0 18 -1q10 1 20 1q218 0 337 -318l5 -31q6 -43 6 -88v-6q0 -367 -465 -845l-261 -102l-41 -165q163 163 548 446l31 5l6 -4l28 4l36 -27l5 -31l-2 -1l2 -11l-353 -231l-335 -358l-15 -2l-12 8l-6 -7l-16 -2l-36 27l1 12 h-1l29 280l-119 -116q-14 -2 -26 7l-8 -8h-4q-32 0 -55 72q1 2 3 3q-2 4 -3 9q62 39 123 90q-197 85 -240 370l-23 45q-6 39 -6 79v11z" />
<glyph unicode="R" horiz-adv-x="963" d="M-92 1046v16l192 160h57l9 -9q205 73 350 73h41q480 0 480 -240v-21q0 -235 -496 -496q-18 -59 -156 -95q351 -356 732 -636v-16l-3 -2q2 -1 3 -3v-16l-48 -48q-6 6 -13 12l-12 -12q-593 529 -848 704v53q0 35 144 48l544 400l48 128v11q-106 128 -352 128h-23 q-400 -28 -400 -160v-139l16 -80h-4l3 -15l1 -1v-16l-2 -2l2 -3v-16l-5 -5l5 -6l-3 -18l3 -3l-16 -112v-448l-13 -53l13 -54l9 -185h-1l1 -21l-32 -32h-16l-4 5l-5 -5h-16l-32 32v197l7 949l-12 49l-74 -50h-16l-4 4l-5 -4h-16l-32 32v16l3 2z" />
<glyph unicode="S" horiz-adv-x="800" d="M-11 610v133q114 260 416 480q140 112 240 112q41 0 41 -53l-368 -272q-210 -236 -223 -339q22 -89 575 -120q96 -108 96 -144v-21q0 -269 -544 -623h-57l-32 32v16l2 2l-2 2v16q506 399 512 572q-6 58 -528 79q-128 99 -128 128z" />
<glyph unicode="T" horiz-adv-x="898" d="M-44 1177v16q0 37 464 96v96l32 32h53l48 -48l-4 -17l4 -4l-10 -41l389 46l2 -2l19 2l15 -15l60 15h101l32 -32v-53l-32 -48l-20 2l-1 -2q-144 9 -180 23l-7 -7h-128l-256 -32l-32 -128v-192l-12 -47l12 -12l-5 -16l5 -5l-15 -46l31 -829h-1l1 -20l-16 -16h-69l-32 32 v740l15 396l-15 15v16l1 4l-1 1v16l11 45l-41 14q-127 -6 -349 -80l-4 6q-8 -3 -17 -6l-47 64v16q0 1 1 3z" />
<glyph unicode="U" horiz-adv-x="1251" d="M34 415v94q28 268 256 624l144 128l10 -10l11 10l16 -16v-62q-300 -343 -350 -673q58 -401 284 -416l61 15l4 -4l17 4l15 -15q361 153 476 431q160 442 160 720h69l32 -32l-2 -28l2 -2l-64 -733q3 -183 48 -421v-60l-32 -32q-9 0 -17 3l-4 -4q-80 0 -80 287l-16 144l3 8 l-3 22l12 35l-9 36q-26 -120 -206 -293q-201 -191 -384 -191h-149q-304 115 -304 431z" />
<glyph unicode="V" horiz-adv-x="1014" d="M-142 1133v16l32 32h58q306 -339 522 -1070q45 201 220 590q260 457 480 688h16l5 -5q2 3 4 5h16l32 -32v-32l-112 -144l-16 -32h-5l-8 -16h-16q-247 -313 -483 -928q-38 -277 -90 -324q-17 -27 -35 -27h-16q-6 0 -13 16q-32 61 -99 367q-250 602 -477 879q-1 0 -2 1h1z " />
<glyph unicode="W" horiz-adv-x="1283" d="M-43 1192l16 32q13 0 24 -3l1 3q112 0 112 -208q89 -242 170 -789q23 206 253 677l16 16h16q4 0 7 -2l2 2h16q53 0 96 -352q102 -236 111 -428q76 296 488 1004q119 192 144 192l9 -9q10 9 16 9l48 -48v-16q-3 -4 -7 -7l7 -7v-16q-166 -182 -400 -672 q-226 -411 -256 -783h-89q-28 0 -80 463l-124 435q-38 -46 -91 -243q-49 0 -128 -495v-35l-32 -32h-73q-32 0 -32 48q0 409 -234 1245q-3 9 -6 19z" />
<glyph unicode="X" horiz-adv-x="1165" d="M-171 -279q0 175 640 1008v7q-384 503 -384 560l5 5q-5 13 -5 20l16 16h57l368 -496l11 -11q572 624 716 683h16l3 -3q3 2 6 3h16l32 -32v-73q-213 -128 -528 -464q-161 -208 -192 -208v-7q528 -709 528 -783l-5 -4q5 -13 5 -20l-16 -16h-24l-1 -1h-32q-24 0 -507 727 q-105 -70 -540 -758l-112 -208h-16l-5 5l-4 -6h-16l-32 32q0 10 3 22z" />
<glyph unicode="Y" horiz-adv-x="1128" d="M30 950q1 3 1 6l-1 7q40 238 128 384h37q48 0 48 -64v-13l-112 -288q6 -301 301 -354q350 91 350 223q55 22 111 251l-31 184l2 2l-2 11l16 16h53q77 0 96 -448v-13l-15 -146l234 63h16v-1l5 1h16v-77q0 -22 -224 -80q-53 -27 -62 -273q-2 -51 -2 -111q-26 -44 -41 -89 q-23 -67 -23 -135q-182 -270 -288 -270h-101q-176 71 -176 255v12q0 309 448 608l112 32v178q-188 -287 -491 -287h-69q-212 0 -320 320zM483 -28q23 -129 108 -142l31 30l16 -5l5 5l32 -10q134 141 202 358q19 62 33 131l2 17l12 84l-14 14l2 11l-2 2l16 80 q-443 -265 -443 -509v-66z" />
<glyph unicode="Z" horiz-adv-x="1100" d="M-145 13q212 340 448 624v3q-96 0 -96 48v29q0 32 176 32l448 464v3h-55q-550 -64 -672 -112l-5 7q-11 -3 -20 -7l-32 48v29q0 54 608 128l320 32l2 -2l23 2l32 -48v-45q-422 -366 -488 -467l430 64v-4l25 4v-61q0 -24 -64 -48l-7 8q-8 -4 -18 -8l-14 15l-456 -95 l-400 -544v-17q225 62 343 62v-1q13 1 25 1v-10q331 74 551 74l20 4l52 -13l51 13h73l32 -32v-45l-32 -32h-16l-8 1l-1 -1h-16l-123 11l-16 1q-1033 -103 -1039 -190v-1h-48l-32 32v11l-1 1v32z" />
<glyph unicode="[" horiz-adv-x="569" />
<glyph unicode="\" horiz-adv-x="569" />
<glyph unicode="]" horiz-adv-x="569" />
<glyph unicode="^" horiz-adv-x="495" d="M15 1013q221 295 287 284l19 -3l167 -256l-5 -19l-51 -33l-19 3l-133 167q-181 -177 -213 -172l-39 6z" />
<glyph unicode="_" />
<glyph unicode="`" horiz-adv-x="308" d="M14 1164q37 81 102 54l147 -304l-35 -68l-10 10q-122 110 -204 308z" />
<glyph unicode="a" horiz-adv-x="747" d="M34 310v20q118 300 360 300h40l40 -40q0 -60 -120 -60q-147 -60 -220 -180l60 -40l340 140h20q160 -132 160 -220l-60 -20l-140 100q-80 -60 -320 -120q-148 74 -160 120z" />
<glyph unicode="b" horiz-adv-x="585" d="M-1 160v40l380 200l20 20v80h-40q-115 0 -220 -80h-60l-40 40v40q60 62 60 380l-20 100l60 40h20q46 0 60 -100l-40 -180v-160l140 40q220 -40 220 -160q0 -173 -520 -320z" />
<glyph unicode="c" horiz-adv-x="569" d="M9 355q0 151 300 260q120 -47 120 -80v-20q0 -40 -60 -40l-80 20q-160 -34 -160 -180l20 -20h40l320 40h20l40 -40l-360 -120q-200 20 -200 180z" />
<glyph unicode="d" horiz-adv-x="689" d="M23 361v40q0 200 360 200l120 -40l20 60l-40 320l60 40q60 0 60 -80l-20 -80l20 -180l-20 -120l20 -160l-20 -20h-40q-127 160 -260 160q-140 -47 -140 -80v-20q0 -74 320 -120v-60l-120 -40q-192 0 -320 180z" />
<glyph unicode="e" horiz-adv-x="659" d="M52 402q164 240 300 240q200 -25 200 -80v-80q-63 -120 -220 -120l-40 40q9 47 160 100v20l-120 20l-180 -160q0 -80 240 -120l180 60l40 -60v-40l-240 -60q-320 0 -320 240z" />
<glyph unicode="f" horiz-adv-x="783" d="M29 444v40l40 40l260 -60l60 20q-12 46 -240 180l-40 120q0 153 220 180h80q153 0 180 -80v-40l-140 20q-220 -40 -220 -80q0 -34 220 -180q34 -100 100 -100l160 40l40 -60v-40l-80 -60l-120 40q-60 -240 -100 -240h-40l20 120l-20 80h-220q-147 0 -160 60z" />
<glyph unicode="g" horiz-adv-x="656" d="M38 262v120q67 102 260 180q200 -20 200 -60q-338 -74 -360 -160q0 -40 120 -40v-20q154 34 260 140h40q60 -20 60 -120v-120q0 -206 -400 -420l-60 60v20l200 100q160 167 160 260v60l-200 -60h-120q-147 0 -160 60z" />
<glyph unicode="h" horiz-adv-x="569" d="M42 321l40 560l-20 60l60 40l60 -60v-20l-20 -100l20 -80l-20 -200l100 100h20q220 0 220 -400v-60l-20 -120l20 -100v-40l-40 -40h-40l-40 40l20 380q-31 220 -100 220h-20q-62 -18 -140 -220h-40z" />
<glyph unicode="i" horiz-adv-x="330" d="M9 678v60l100 100h20q40 0 40 -60l-40 -80q136 0 220 140l60 -60v-60q0 -52 -280 -100h-60zM109 218v240l40 40h20l40 -40v-20l-20 -80l20 -80v-60l-40 -40h-20z" />
<glyph unicode="j" horiz-adv-x="502" d="M-98 -46q0 40 60 40l200 -80h40q140 80 140 300l-140 240v20l40 40h20q180 -136 180 -340q0 -221 -200 -360h-40q-300 20 -300 120v20zM62 634v40q0 109 100 160l40 -40l-40 -60v-80h60l120 40l-20 20v20l40 40h80l40 -40q0 -136 -320 -180z" />
<glyph unicode="k" horiz-adv-x="620" d="M34 266l20 560l-20 60l60 40q60 0 60 -320l-20 -140l200 120h120q120 -13 120 -60v-80q-100 -140 -160 -140l220 -220l-60 -60h-40q-260 234 -260 320q177 56 200 120v20h-60q-194 0 -280 -280l-20 -20h-20q-50 0 -60 80z" />
<glyph unicode="l" horiz-adv-x="291" d="M64 1024l60 40h20l60 -40l-20 -100v-640l20 -100l-20 -20h-60l-40 40v720z" />
<glyph unicode="m" horiz-adv-x="873" d="M35 544l20 20h40q40 0 60 -180h20l140 120h60l100 -100l180 180h20q49 0 120 -220l120 -100l-60 -40h-100q-54 0 -100 240l-200 -260h-20q-51 0 -80 200l-240 -200q-80 0 -80 340z" />
<glyph unicode="n" horiz-adv-x="596" d="M41 306v220l40 40q40 0 40 -120l160 140h40q66 -32 180 -240l80 -40l60 20l40 -60q-12 -60 -160 -60q-52 0 -240 240h-20q0 -57 -160 -180h-20z" />
<glyph unicode="o" horiz-adv-x="629" d="M37 346q91 200 120 200l40 -40l-60 -180q40 0 40 -60h120q180 133 180 240l-140 40l-120 -20v20q15 60 140 100q240 -21 240 -140q0 -229 -340 -340h-100q-120 70 -120 180z" />
<glyph unicode="p" horiz-adv-x="562" d="M34 479q130 140 320 140q160 -50 160 -200q-22 -200 -160 -200h-140v-20q0 -339 -60 -339h-20l-60 40l20 199v60l-20 140l20 20h260l40 40v100l-60 60l-260 -100z" />
<glyph unicode="q" horiz-adv-x="564" d="M53 319q51 280 260 280h20q108 0 140 -80v-20l-40 -40h-20l-60 40q-180 -31 -180 -160l120 -40l100 60h60l40 -40l-80 -260v-60q0 -179 180 -320l-40 -40h-60q-92 0 -180 340v180l20 20v20q-200 0 -280 120z" />
<glyph unicode="r" horiz-adv-x="667" d="M66 232v280l40 40q40 0 40 -120h20q199 180 300 180h100q60 -20 60 -120v-100h-60q0 80 -80 120h-40q-260 -151 -260 -300l-20 -20h-60z" />
<glyph unicode="s" horiz-adv-x="468" d="M40 219v20l20 20v20l140 -20q104 0 120 60q0 34 -240 120l-20 20v20q59 140 180 140h120l40 -40q0 -40 -160 -40l-40 -60q152 0 240 -120v-80l-140 -120h-140q-104 0 -120 60z" />
<glyph unicode="t" horiz-adv-x="409" d="M-114 481l34 45l187 -33l-3 20l25 246l-23 17l-9 59l34 45l88 -48l6 -39l-22 -300l181 6l133 58l48 -54q1 -10 1 -19q0 -57 -59 -57q-15 0 -33 4l-116 -37l-138 -20l-6 -68l21 -138l-34 -45l-40 -6l-45 34l5 243l-20 -3q-34 -2 -62 -2q-139 0 -147 53z" />
<glyph unicode="u" horiz-adv-x="610" d="M48 266v42q0 276 60 276h20l40 -42l-20 -191l20 -22h20q275 213 340 213l40 -43l-20 -85l120 -127l-40 -43h-60q-100 94 -100 149h-20q-216 -191 -320 -191z" />
<glyph unicode="v" horiz-adv-x="495" d="M15 514l20 20h40q33 -1 160 -200l180 140h20l40 -40v-20l-240 -220h-20q-67 0 -200 320z" />
<glyph unicode="w" horiz-adv-x="834" d="M35 519l20 20h60q40 0 120 -240h20q160 132 160 200h60q53 0 80 -140h60q47 9 100 160h20l60 -60q0 -187 -240 -220q-53 0 -100 100q-150 -140 -240 -140q-144 2 -180 320z" />
<glyph unicode="x" horiz-adv-x="499" d="M-375 -186q0 46 540 560l-120 120v20q0 46 100 60q0 -60 120 -120l760 580q93 119 240 160l20 -20v-60l-500 -380q-228 -115 -440 -360q100 -106 100 -160l-60 -40h-20l-120 120q-111 -59 -540 -540h-40l-40 40v20z" />
<glyph unicode="y" horiz-adv-x="669" d="M33 314v40q36 249 83 249h40l-23 -269h20q39 0 220 200h40l40 -40l-20 -140q220 -100 220 -220v-40q0 -228 -520 -360h-20l-40 40v20l40 60l100 -20q176 67 320 220v100l-220 160q-85 -80 -220 -80z" />
<glyph unicode="z" horiz-adv-x="616" d="M21 519q0 79 320 95q91 -46 100 -95v-24q0 -57 -140 -119l-58 -60l398 12l40 -48q-20 -95 -80 -95l-140 48l-360 -24l-20 24v71q129 140 206 182v24h-40l-200 -48l-20 24z" />
<glyph unicode="{" horiz-adv-x="684" />
<glyph unicode="|" horiz-adv-x="532" />
<glyph unicode="}" horiz-adv-x="684" />
<glyph unicode="~" horiz-adv-x="521" d="M40 1009l3 178l62 52q148 9 244 -109l21 69l-6 8l77 31q64 -90 -3 -216l-14 -13l-29 3q-218 130 -245 109q-25 -37 1 -88z" />
<glyph unicode="&#xa1;" horiz-adv-x="727" d="M147 -176h20l20 -20h20l60 220l-20 20v20q80 270 80 540v260l-40 60l20 20h20l120 -100v-100q-50 -1020 -220 -1020l-20 20l-40 40h-20v40zM187 1384q0 80 280 120l40 -60v-100q-66 -160 -260 -160l100 160v20l-100 -20h-20z" />
<glyph unicode="&#xa2;" />
<glyph unicode="&#xa3;" />
<glyph unicode="&#xa4;" />
<glyph unicode="&#xa5;" />
<glyph unicode="&#xa6;" horiz-adv-x="532" />
<glyph unicode="&#xa7;" />
<glyph unicode="&#xa8;" horiz-adv-x="382" d="M35 1174q43 31 115 2q26 -121 -25 -209l-4 -8l-64 24zM225 995l29 162l64 26l3 -8q55 -87 32 -208q-84 -2 -128 28z" />
<glyph unicode="&#xa9;" horiz-adv-x="1509" />
<glyph unicode="&#xaa;" horiz-adv-x="758" />
<glyph unicode="&#xab;" />
<glyph unicode="&#xac;" horiz-adv-x="1196" />
<glyph unicode="&#xad;" horiz-adv-x="721" d="M43 477v60l29 40h515l71 20l29 -60v-20l-29 -60l-71 20h-458l-72 -20z" />
<glyph unicode="&#xae;" horiz-adv-x="1509" />
<glyph unicode="&#xaf;" horiz-adv-x="1131" />
<glyph unicode="&#xb0;" horiz-adv-x="819" />
<glyph unicode="&#xb1;" horiz-adv-x="1124" />
<glyph unicode="&#xb2;" horiz-adv-x="682" />
<glyph unicode="&#xb3;" horiz-adv-x="682" />
<glyph unicode="&#xb4;" horiz-adv-x="382" d="M14 971l251 224q70 1 74 -88q-151 -152 -306 -208l-12 -5z" />
<glyph unicode="&#xb5;" horiz-adv-x="1180" />
<glyph unicode="&#xb6;" horiz-adv-x="1100" />
<glyph unicode="&#xb7;" horiz-adv-x="569" />
<glyph unicode="&#xb8;" horiz-adv-x="394" d="M64 -230q-8 149 110 245l-69 20q-4 -3 -9 -6l-30 77q90 64 215 -2l14 -15l-4 -29q-130 -218 -108 -244q36 -26 88 1l23 -111l-178 3z" />
<glyph unicode="&#xb9;" horiz-adv-x="682" />
<glyph unicode="&#xba;" horiz-adv-x="748" />
<glyph unicode="&#xbb;" />
<glyph unicode="&#xbc;" horiz-adv-x="1708" />
<glyph unicode="&#xbd;" horiz-adv-x="1708" />
<glyph unicode="&#xbe;" horiz-adv-x="1708" />
<glyph unicode="&#xbf;" horiz-adv-x="1345" d="M73 -16v60q0 273 480 540l200 220v40l-140 -20h-20l-40 40v20q0 60 260 60l60 -60v-100q-124 -220 -600 -520l-100 -200q6 -79 220 -200l20 20h20q493 0 700 260l20 20l-20 60h-20v40l180 20v-120q-103 -220 -520 -360l-280 -40v20l-20 -20h-80q-233 54 -320 220z M633 1324v20q0 60 180 100h40l60 -80q-46 -128 -160 -180h-40l-40 40v40q59 0 100 80l-100 -20h-40z" />
<glyph unicode="&#xc0;" horiz-adv-x="1001" d="M-97 45q0 107 128 176l11 -11q9 6 18 11l16 -16v-16l-4 -6v-3q43 53 103 153v5q-12 5 -24 15q-32 13 -56 60v16l32 32l22 -8l7 8l104 -39q237 455 363 967l-16 16v16l32 32h16l7 -6l6 6h16l32 -32v-192q0 -386 448 -1328q64 -8 64 -48v-16l-4 -4v-12l-32 -32h-32 q-6 8 -13 16h-12q-101 119 -307 612l-3 -3q0 -1 -1 -2q0 -15 -17 -29q-68 -54 -399 -82h-96q-240 -320 -336 -320l-16 17q-4 -1 -9 -1zM364 413h64l11 -11l317 66l43 9q-117 325 -167 564q-30 -176 -268 -628zM461 1756q37 81 102 54l147 -304l-35 -68l-10 10 q-122 110 -204 308z" />
<glyph unicode="&#xc1;" horiz-adv-x="1001" d="M-97 45q0 107 128 176l11 -11q9 6 18 11l16 -16v-16l-4 -6v-3q43 53 103 153v5q-12 5 -24 15q-32 13 -56 60v16l32 32l22 -8l7 8l104 -39q237 455 363 967l-16 16v16l32 32h16l7 -6l6 6h16l32 -32v-192q0 -386 448 -1328q64 -8 64 -48v-16l-4 -4v-12l-32 -32h-32 q-6 8 -13 16h-12q-101 119 -307 612l-3 -3q0 -1 -1 -2q0 -15 -17 -29q-68 -54 -399 -82h-96q-240 -320 -336 -320l-16 17q-4 -1 -9 -1zM364 413h64l11 -11l317 66l43 9q-117 325 -167 564q-30 -176 -268 -628zM643 1580l251 224q70 1 74 -88q-151 -152 -306 -208l-12 -5z " />
<glyph unicode="&#xc2;" horiz-adv-x="1001" d="M-97 45q0 107 128 176l11 -11q9 6 18 11l16 -16v-16l-4 -6v-3q43 53 103 153v5q-12 5 -24 15q-32 13 -56 60v16l32 32l22 -8l7 8l104 -39q237 455 363 967l-16 16v16l32 32h16l7 -6l6 6h16l32 -32v-192q0 -386 448 -1328q64 -8 64 -48v-16l-4 -4v-12l-32 -32h-32 q-6 8 -13 16h-12q-101 119 -307 612l-3 -3q0 -1 -1 -2q0 -15 -17 -29q-68 -54 -399 -82h-96q-240 -320 -336 -320l-16 17q-4 -1 -9 -1zM364 413h64l11 -11l317 66l43 9q-117 325 -167 564q-30 -176 -268 -628zM414 1533q221 295 287 284l19 -3l167 -256l-5 -19l-51 -33 l-19 3l-133 167q-181 -177 -213 -172l-39 6z" />
<glyph unicode="&#xc3;" horiz-adv-x="1001" d="M-97 45q0 107 128 176l11 -11q9 6 18 11l16 -16v-16l-4 -6v-3q43 53 103 153v5q-12 5 -24 15q-32 13 -56 60v16l32 32l22 -8l7 8l104 -39q237 455 363 967l-16 16v16l32 32h16l7 -6l6 6h16l32 -32v-192q0 -386 448 -1328q64 -8 64 -48v-16l-4 -4v-12l-32 -32h-32 q-6 8 -13 16h-12q-101 119 -307 612l-3 -3q0 -1 -1 -2q0 -15 -17 -29q-68 -54 -399 -82h-96q-240 -320 -336 -320l-16 17q-4 -1 -9 -1zM364 413h64l11 -11l317 66l43 9q-117 325 -167 564q-30 -176 -268 -628zM443 1525l3 178l62 52q148 9 244 -109l21 69l-6 8l77 31 q64 -90 -3 -216l-14 -13l-29 3q-218 130 -245 109q-25 -37 1 -88z" />
<glyph unicode="&#xc4;" horiz-adv-x="1001" d="M-97 45q0 107 128 176l11 -11q9 6 18 11l16 -16v-16l-4 -6v-3q43 53 103 153v5q-12 5 -24 15q-32 13 -56 60v16l32 32l22 -8l7 8l104 -39q237 455 363 967l-16 16v16l32 32h16l7 -6l6 6h16l32 -32v-192q0 -386 448 -1328q64 -8 64 -48v-16l-4 -4v-12l-32 -32h-32 q-6 8 -13 16h-12q-101 119 -307 612l-3 -3q0 -1 -1 -2q0 -15 -17 -29q-68 -54 -399 -82h-96q-240 -320 -336 -320l-16 17q-4 -1 -9 -1zM364 413h64l11 -11l317 66l43 9q-117 325 -167 564q-30 -176 -268 -628zM498 1762q43 31 115 2q26 -121 -25 -209l-4 -8l-64 24z M688 1583l29 162l64 26l3 -8q55 -87 32 -208q-84 -2 -128 28z" />
<glyph unicode="&#xc5;" horiz-adv-x="1366" />
<glyph unicode="&#xc6;" horiz-adv-x="2048" />
<glyph unicode="&#xc7;" horiz-adv-x="1263" d="M52 347v98q37 241 256 512q408 368 624 368h98q176 0 176 -144q-1 -3 -2 -7q2 -13 2 -27q-43 -176 -144 -176l-4 4q-14 -4 -30 -4l-16 16v16q4 5 7 11l-7 7v16q61 87 75 143l-103 30q-298 -22 -690 -479q-122 -224 -128 -398q11 -262 358 -272q286 15 648 224h16l7 -7 q5 4 11 7h16l32 -32v-32q-1 0 -1 -1l1 -1v-32q-389 -256 -800 -256l-1 1q-16 -1 -33 -1l-50 26l-28 -10l-18 6l-16 -6q-256 70 -256 400zM478 -335q-8 149 110 245l-69 20q-4 -3 -9 -6l-30 77q90 64 215 -2l14 -15l-4 -29q-130 -218 -108 -244q36 -26 88 1l23 -111l-178 3z " />
<glyph unicode="&#xc8;" horiz-adv-x="963" d="M-43 1117v32q0 57 432 144l320 32q5 -1 11 -1l14 1q144 -19 144 -48v-48q0 -32 -96 -48v5q-12 -3 -25 -5v32h-80l-3 4l-4 -4h-176q-115 0 -302 -79l14 -97v-160l-14 -167q231 76 661 167l4 -4q11 2 21 4l16 -16v-80l-32 -32l-20 5l-5 -5l-55 14q-608 -94 -608 -286v-176 l16 -144l-1 -7l1 -9l-16 -112v-16l42 -11q29 27 317 91q436 272 480 272l5 -5q14 5 20 5l16 -16v-64l-544 -320l-432 -144h-21v2l-4 -2h-21l1 16h-1l7 84l14 -4l16 16v320l-16 64q1 5 1 11q47 394 47 767l-39 -26h-57zM346 1752q37 81 102 54l147 -304l-35 -68l-10 10 q-122 110 -204 308z" />
<glyph unicode="&#xc9;" horiz-adv-x="963" d="M-43 1117v32q0 57 432 144l320 32q5 -1 11 -1l14 1q144 -19 144 -48v-48q0 -32 -96 -48v5q-12 -3 -25 -5v32h-80l-3 4l-4 -4h-176q-115 0 -302 -79l14 -97v-160l-14 -167q231 76 661 167l4 -4q11 2 21 4l16 -16v-80l-32 -32l-20 5l-5 -5l-55 14q-608 -94 -608 -286v-176 l16 -144l-1 -7l1 -9l-16 -112v-16l42 -11q29 27 317 91q436 272 480 272l5 -5q14 5 20 5l16 -16v-64l-544 -320l-432 -144h-21v2l-4 -2h-21l1 16h-1l7 84l14 -4l16 16v320l-16 64q1 5 1 11q47 394 47 767l-39 -26h-57zM419 1555l251 224q70 1 74 -88q-151 -152 -306 -208 l-12 -5z" />
<glyph unicode="&#xca;" horiz-adv-x="963" d="M-43 1117v32q0 57 432 144l320 32q5 -1 11 -1l14 1q144 -19 144 -48v-48q0 -32 -96 -48v5q-12 -3 -25 -5v32h-80l-3 4l-4 -4h-176q-115 0 -302 -79l14 -97v-160l-14 -167q231 76 661 167l4 -4q11 2 21 4l16 -16v-80l-32 -32l-20 5l-5 -5l-55 14q-608 -94 -608 -286v-176 l16 -144l-1 -7l1 -9l-16 -112v-16l42 -11q29 27 317 91q436 272 480 272l5 -5q14 5 20 5l16 -16v-64l-544 -320l-432 -144h-21v2l-4 -2h-21l1 16h-1l7 84l14 -4l16 16v320l-16 64q1 5 1 11q47 394 47 767l-39 -26h-57zM286 1519q221 295 287 284l19 -3l167 -256l-5 -19 l-51 -33l-19 3l-133 167q-181 -177 -213 -172l-39 6z" />
<glyph unicode="&#xcb;" horiz-adv-x="963" d="M-43 1117v32q0 57 432 144l320 32q5 -1 11 -1l14 1q144 -19 144 -48v-48q0 -32 -96 -48v5q-12 -3 -25 -5v32h-80l-3 4l-4 -4h-176q-115 0 -302 -79l14 -97v-160l-14 -167q231 76 661 167l4 -4q11 2 21 4l16 -16v-80l-32 -32l-20 5l-5 -5l-55 14q-608 -94 -608 -286v-176 l16 -144l-1 -7l1 -9l-16 -112v-16l42 -11q29 27 317 91q436 272 480 272l5 -5q14 5 20 5l16 -16v-64l-544 -320l-432 -144h-21v2l-4 -2h-21l1 16h-1l7 84l14 -4l16 16v320l-16 64q1 5 1 11q47 394 47 767l-39 -26h-57zM355 1749q43 31 115 2q26 -121 -25 -209l-4 -8l-64 24z M545 1570l29 162l64 26l3 -8q55 -87 32 -208q-84 -2 -128 28z" />
<glyph unicode="&#xcc;" horiz-adv-x="526" d="M38 1769q37 81 102 54l147 -304l-35 -68l-10 10q-122 110 -204 308zM176 -69l41 1038l-21 346l21 19h60l41 -38v-58l-20 -77l20 -19v-19l-20 -20l20 -192v-173q0 -303 -41 -404l21 -19l-21 -96v-38l21 -288l-21 -20h-60q-41 0 -41 58z" />
<glyph unicode="&#xcd;" horiz-adv-x="526" d="M176 -69l41 1038l-21 346l21 19h60l41 -38v-58l-20 -77l20 -19v-19l-20 -20l20 -192v-173q0 -303 -41 -404l21 -19l-21 -96v-38l21 -288l-21 -20h-60q-41 0 -41 58zM226 1555l251 224q70 1 74 -88q-151 -152 -306 -208l-12 -5z" />
<glyph unicode="&#xce;" horiz-adv-x="526" d="M10 1515q221 295 287 284l19 -3l167 -256l-5 -19l-51 -33l-19 3l-133 167q-181 -177 -213 -172l-39 6zM176 -69l41 1038l-21 346l21 19h60l41 -38v-58l-20 -77l20 -19v-19l-20 -20l20 -192v-173q0 -303 -41 -404l21 -19l-21 -96v-38l21 -288l-21 -20h-60q-41 0 -41 58z " />
<glyph unicode="&#xcf;" horiz-adv-x="526" d="M75 1749q43 31 115 2q26 -121 -25 -209l-4 -8l-64 24zM176 -69l41 1038l-21 346l21 19h60l41 -38v-58l-20 -77l20 -19v-19l-20 -20l20 -192v-173q0 -303 -41 -404l21 -19l-21 -96v-38l21 -288l-21 -20h-60q-41 0 -41 58zM265 1570l29 162l64 26l3 -8q55 -87 32 -208 q-84 -2 -128 28z" />
<glyph unicode="&#xd0;" horiz-adv-x="1479" />
<glyph unicode="&#xd1;" horiz-adv-x="1066" d="M44 984h1l-1 16l2 14l-2 2q15 118 43 127l-43 129l4 4l-4 12l16 16h68q48 0 64 -176q292 -729 464 -832q116 -209 275 -356q-55 278 -55 452v208l13 51l-13 13v32q38 401 144 592h52l32 -32l-4 -12l4 -4q-126 -348 -128 -752l16 -48l-4 -4l4 -12l-16 -16v-16 q15 -260 45 -300q1 -2 3 -4l-13 -53q46 -83 77 -282l-2 -2l2 -14l-16 -16h-68q-233 165 -416 479q-175 142 -430 730l-12 -37l14 -101v-144l16 -240h-1l1 -16l-2 -14l2 -2l-16 -112v-112l16 -64l-2 -8l2 -8q-21 -95 -48 -95l-7 6q-6 -6 -13 -6l-16 15h-16zM365 1547l3 178 l62 52q148 9 244 -109l21 69l-6 8l77 31q64 -90 -3 -216l-14 -13l-29 3q-218 130 -245 109q-25 -37 1 -88z" />
<glyph unicode="&#xd2;" horiz-adv-x="1204" d="M34 471v16q0 361 464 688q196 80 368 96q3 -1 6 -3q14 2 27 3q176 -76 176 -192v-80l-48 -48h-16q-6 0 -11 5l-6 -5h-16q-32 0 -32 144q-61 58 -118 63q-364 -13 -617 -463l-64 -224q5 -290 208 -384h79q219 0 560 368q192 289 192 368v112q0 210 -256 368v16h49 q258 0 336 -368v-48q0 -399 -592 -848l-352 -79l-12 4l-21 -5q-288 86 -288 448zM779 1751q37 81 102 54l147 -304l-35 -68l-10 10q-122 110 -204 308z" />
<glyph unicode="&#xd3;" horiz-adv-x="1204" d="M34 471v16q0 361 464 688q196 80 368 96q3 -1 6 -3q14 2 27 3q176 -76 176 -192v-80l-48 -48h-16q-6 0 -11 5l-6 -5h-16q-32 0 -32 144q-61 58 -118 63q-364 -13 -617 -463l-64 -224q5 -290 208 -384h79q219 0 560 368q192 289 192 368v112q0 210 -256 368v16h49 q258 0 336 -368v-48q0 -399 -592 -848l-352 -79l-12 4l-21 -5q-288 86 -288 448zM789 1567l251 224q70 1 74 -88q-151 -152 -306 -208l-12 -5z" />
<glyph unicode="&#xd4;" horiz-adv-x="1204" d="M34 471v16q0 361 464 688q196 80 368 96q3 -1 6 -3q14 2 27 3q176 -76 176 -192v-80l-48 -48h-16q-6 0 -11 5l-6 -5h-16q-32 0 -32 144q-61 58 -118 63q-364 -13 -617 -463l-64 -224q5 -290 208 -384h79q219 0 560 368q192 289 192 368v112q0 210 -256 368v16h49 q258 0 336 -368v-48q0 -399 -592 -848l-352 -79l-12 4l-21 -5q-288 86 -288 448zM546 1532q221 295 287 284l19 -3l167 -256l-5 -19l-51 -33l-19 3l-133 167q-181 -177 -213 -172l-39 6z" />
<glyph unicode="&#xd5;" horiz-adv-x="1204" d="M34 471v16q0 361 464 688q196 80 368 96q3 -1 6 -3q14 2 27 3q176 -76 176 -192v-80l-48 -48h-16q-6 0 -11 5l-6 -5h-16q-32 0 -32 144q-61 58 -118 63q-364 -13 -617 -463l-64 -224q5 -290 208 -384h79q219 0 560 368q192 289 192 368v112q0 210 -256 368v16h49 q258 0 336 -368v-48q0 -399 -592 -848l-352 -79l-12 4l-21 -5q-288 86 -288 448zM607 1534l3 178l62 52q148 9 244 -109l21 69l-6 8l77 31q64 -90 -3 -216l-14 -13l-29 3q-218 130 -245 109q-25 -37 1 -88z" />
<glyph unicode="&#xd6;" horiz-adv-x="1204" d="M34 471v16q0 361 464 688q196 80 368 96q3 -1 6 -3q14 2 27 3q176 -76 176 -192v-80l-48 -48h-16q-6 0 -11 5l-6 -5h-16q-32 0 -32 144q-61 58 -118 63q-364 -13 -617 -463l-64 -224q5 -290 208 -384h79q219 0 560 368q192 289 192 368v112q0 210 -256 368v16h49 q258 0 336 -368v-48q0 -399 -592 -848l-352 -79l-12 4l-21 -5q-288 86 -288 448zM604 1770q43 31 115 2q26 -121 -25 -209l-4 -8l-64 24zM794 1591l29 162l64 26l3 -8q55 -87 32 -208q-84 -2 -128 28z" />
<glyph unicode="&#xd7;" horiz-adv-x="1196" />
<glyph unicode="&#xd8;" horiz-adv-x="1593" />
<glyph unicode="&#xd9;" horiz-adv-x="1251" d="M34 415v94q28 268 256 624l144 128l10 -10l11 10l16 -16v-62q-300 -343 -350 -673q58 -401 284 -416l61 15l4 -4l17 4l15 -15q361 153 476 431q160 442 160 720h69l32 -32l-2 -28l2 -2l-64 -733q3 -183 48 -421v-60l-32 -32q-9 0 -17 3l-4 -4q-80 0 -80 287l-16 144l3 8 l-3 22l12 35l-9 36q-26 -120 -206 -293q-201 -191 -384 -191h-149q-304 115 -304 431zM619 1731q37 81 102 54l147 -304l-35 -68l-10 10q-122 110 -204 308z" />
<glyph unicode="&#xda;" horiz-adv-x="1251" d="M34 415v94q28 268 256 624l144 128l10 -10l11 10l16 -16v-62q-300 -343 -350 -673q58 -401 284 -416l61 15l4 -4l17 4l15 -15q361 153 476 431q160 442 160 720h69l32 -32l-2 -28l2 -2l-64 -733q3 -183 48 -421v-60l-32 -32q-9 0 -17 3l-4 -4q-80 0 -80 287l-16 144l3 8 l-3 22l12 35l-9 36q-26 -120 -206 -293q-201 -191 -384 -191h-149q-304 115 -304 431zM804 1546l251 224q70 1 74 -88q-151 -152 -306 -208l-12 -5z" />
<glyph unicode="&#xdb;" horiz-adv-x="1251" d="M34 415v94q28 268 256 624l144 128l10 -10l11 10l16 -16v-62q-300 -343 -350 -673q58 -401 284 -416l61 15l4 -4l17 4l15 -15q361 153 476 431q160 442 160 720h69l32 -32l-2 -28l2 -2l-64 -733q3 -183 48 -421v-60l-32 -32q-9 0 -17 3l-4 -4q-80 0 -80 287l-16 144l3 8 l-3 22l12 35l-9 36q-26 -120 -206 -293q-201 -191 -384 -191h-149q-304 115 -304 431zM588 1524q221 295 287 284l19 -3l167 -256l-5 -19l-51 -33l-19 3l-133 167q-181 -177 -213 -172l-39 6z" />
<glyph unicode="&#xdc;" horiz-adv-x="1251" d="M34 415v94q28 268 256 624l144 128l10 -10l11 10l16 -16v-62q-300 -343 -350 -673q58 -401 284 -416l61 15l4 -4l17 4l15 -15q361 153 476 431q160 442 160 720h69l32 -32l-2 -28l2 -2l-64 -733q3 -183 48 -421v-60l-32 -32q-9 0 -17 3l-4 -4q-80 0 -80 287l-16 144l3 8 l-3 22l12 35l-9 36q-26 -120 -206 -293q-201 -191 -384 -191h-149q-304 115 -304 431zM672 1762q43 31 115 2q26 -121 -25 -209l-4 -8l-64 24zM862 1583l29 162l64 26l3 -8q55 -87 32 -208q-84 -2 -128 28z" />
<glyph unicode="&#xdd;" horiz-adv-x="1366" />
<glyph unicode="&#xde;" horiz-adv-x="1366" />
<glyph unicode="&#xdf;" horiz-adv-x="1251" />
<glyph unicode="&#xe0;" horiz-adv-x="747" d="M37 310v20q118 300 360 300h40l40 -40q0 -60 -120 -60q-147 -60 -220 -180l60 -40l340 140h20q160 -132 160 -220l-60 -20l-140 100q-80 -60 -320 -120q-148 74 -160 120zM234 1164q37 81 102 54l147 -304l-35 -68l-10 10q-122 110 -204 308z" />
<glyph unicode="&#xe1;" horiz-adv-x="747" d="M34 310v20q118 300 360 300h40l40 -40q0 -60 -120 -60q-147 -60 -220 -180l60 -40l340 140h20q160 -132 160 -220l-60 -20l-140 100q-80 -60 -320 -120q-148 74 -160 120zM309 971l251 224q70 1 74 -88q-151 -152 -306 -208l-12 -5z" />
<glyph unicode="&#xe2;" horiz-adv-x="747" d="M34 310v20q118 300 360 300h40l40 -40q0 -60 -120 -60q-147 -60 -220 -180l60 -40l340 140h20q160 -132 160 -220l-60 -20l-140 100q-80 -60 -320 -120q-148 74 -160 120zM154 947q221 295 287 284l19 -3l167 -256l-5 -19l-51 -33l-19 3l-133 167q-181 -177 -213 -172 l-39 6z" />
<glyph unicode="&#xe3;" horiz-adv-x="747" d="M34 310v20q118 300 360 300h40l40 -40q0 -60 -120 -60q-147 -60 -220 -180l60 -40l340 140h20q160 -132 160 -220l-60 -20l-140 100q-80 -60 -320 -120q-148 74 -160 120zM168 959l3 178l62 52q148 9 244 -109l21 69l-6 8l77 31q64 -90 -3 -216l-14 -13l-29 3 q-218 130 -245 109q-25 -37 1 -88z" />
<glyph unicode="&#xe4;" horiz-adv-x="747" d="M34 310v20q118 300 360 300h40l40 -40q0 -60 -120 -60q-147 -60 -220 -180l60 -40l340 140h20q160 -132 160 -220l-60 -20l-140 100q-80 -60 -320 -120q-148 74 -160 120zM210 1137q43 31 115 2q26 -121 -25 -209l-4 -8l-64 24zM400 958l29 162l64 26l3 -8 q55 -87 32 -208q-84 -2 -128 28z" />
<glyph unicode="&#xe5;" />
<glyph unicode="&#xe6;" horiz-adv-x="1821" />
<glyph unicode="&#xe7;" horiz-adv-x="569" d="M9 355q0 151 300 260q120 -47 120 -80v-20q0 -40 -60 -40l-80 20q-160 -34 -160 -180l20 -20h40l320 40h20l40 -40l-360 -120q-200 20 -200 180zM147 -176q-8 149 110 245l-69 20q-4 -3 -9 -6l-30 77q90 64 215 -2l14 -15l-4 -29q-130 -218 -108 -244q36 -26 88 1 l23 -111l-178 3z" />
<glyph unicode="&#xe8;" horiz-adv-x="659" d="M52 402q164 240 300 240q200 -25 200 -80v-80q-63 -120 -220 -120l-40 40q9 47 160 100v20l-120 20l-180 -160q0 -80 240 -120l180 60l40 -60v-40l-240 -60q-320 0 -320 240zM189 1164q37 81 102 54l147 -304l-35 -68l-10 10q-122 110 -204 308z" />
<glyph unicode="&#xe9;" horiz-adv-x="659" d="M52 402q164 240 300 240q200 -25 200 -80v-80q-63 -120 -220 -120l-40 40q9 47 160 100v20l-120 20l-180 -160q0 -80 240 -120l180 60l40 -60v-40l-240 -60q-320 0 -320 240zM268 971l251 224q70 1 74 -88q-151 -152 -306 -208l-12 -5z" />
<glyph unicode="&#xea;" horiz-adv-x="659" d="M52 402q164 240 300 240q200 -25 200 -80v-80q-63 -120 -220 -120l-40 40q9 47 160 100v20l-120 20l-180 -160q0 -80 240 -120l180 60l40 -60v-40l-240 -60q-320 0 -320 240zM115 939q221 295 287 284l19 -3l167 -256l-5 -19l-51 -33l-19 3l-133 167q-181 -177 -213 -172 l-39 6z" />
<glyph unicode="&#xeb;" horiz-adv-x="659" d="M52 402q164 240 300 240q200 -25 200 -80v-80q-63 -120 -220 -120l-40 40q9 47 160 100v20l-120 20l-180 -160q0 -80 240 -120l180 60l40 -60v-40l-240 -60q-320 0 -320 240zM183 1149q43 31 115 2q26 -121 -25 -209l-4 -8l-64 24zM373 970l29 162l64 26l3 -8 q55 -87 32 -208q-84 -2 -128 28z" />
<glyph unicode="&#xec;" horiz-adv-x="305" d="M-51 1164q37 81 102 54l147 -304l-35 -68l-10 10q-122 110 -204 308zM108 218v240l40 40h20l40 -40v-20l-20 -80l20 -80v-60l-40 -40h-20z" />
<glyph unicode="&#xed;" horiz-adv-x="305" d="M107 218v240l40 40h20l40 -40v-20l-20 -80l20 -80v-60l-40 -40h-20zM134 971l251 224q70 1 74 -88q-151 -152 -306 -208l-12 -5z" />
<glyph unicode="&#xee;" horiz-adv-x="305" d="M-24 943q177 295 230 284l15 -3l133 -256l-4 -19l-40 -33l-16 3l-106 167q-145 -177 -170 -172l-32 6zM111 218v240l40 40h20l40 -40v-20l-20 -80l20 -80v-60l-40 -40h-20z" />
<glyph unicode="&#xef;" horiz-adv-x="305" d="M-6 1159q43 31 115 2q26 -121 -25 -209l-4 -8l-64 24zM108 218v240l40 40h20l40 -40v-20l-20 -80l20 -80v-60l-40 -40h-20zM184 980l29 162l64 26l3 -8q55 -87 32 -208q-84 -2 -128 28z" />
<glyph unicode="&#xf0;" />
<glyph unicode="&#xf1;" horiz-adv-x="596" d="M41 306v220l40 40q40 0 40 -120l160 140h40q66 -32 180 -240l80 -40l60 20l40 -60q-12 -60 -160 -60q-52 0 -240 240h-20q0 -57 -160 -180h-20zM107 963l3 178l62 52q148 9 244 -109l21 69l-6 8l77 31q64 -90 -3 -216l-14 -13l-29 3q-218 130 -245 109q-25 -37 1 -88z " />
<glyph unicode="&#xf2;" horiz-adv-x="629" d="M37 346q91 200 120 200l40 -40l-60 -180q40 0 40 -60h120q180 133 180 240l-140 40l-120 -20v20q15 60 140 100q240 -21 240 -140q0 -229 -340 -340h-100q-120 70 -120 180zM164 1169q37 81 102 54l147 -304l-35 -68l-10 10q-122 110 -204 308z" />
<glyph unicode="&#xf3;" horiz-adv-x="629" d="M37 346q91 200 120 200l40 -40l-60 -180q40 0 40 -60h120q180 133 180 240l-140 40l-120 -20v20q15 60 140 100q240 -21 240 -140q0 -229 -340 -340h-100q-120 70 -120 180zM272 971l251 224q70 1 74 -88q-151 -152 -306 -208l-12 -5z" />
<glyph unicode="&#xf4;" horiz-adv-x="629" d="M37 346q91 200 120 200l40 -40l-60 -180q40 0 40 -60h120q180 133 180 240l-140 40l-120 -20v20q15 60 140 100q240 -21 240 -140q0 -229 -340 -340h-100q-120 70 -120 180zM95 959q221 295 287 284l19 -3l167 -256l-5 -19l-51 -33l-19 3l-133 167q-181 -177 -213 -172 l-39 6z" />
<glyph unicode="&#xf5;" horiz-adv-x="629" d="M37 346q91 200 120 200l40 -40l-60 -180q40 0 40 -60h120q180 133 180 240l-140 40l-120 -20v20q15 60 140 100q240 -21 240 -140q0 -229 -340 -340h-100q-120 70 -120 180zM134 954l3 178l62 52q148 9 244 -109l21 69l-6 8l77 31q64 -90 -3 -216l-14 -13l-29 3 q-218 130 -245 109q-25 -37 1 -88z" />
<glyph unicode="&#xf6;" horiz-adv-x="629" d="M37 346q91 200 120 200l40 -40l-60 -180q40 0 40 -60h120q180 133 180 240l-140 40l-120 -20v20q15 60 140 100q240 -21 240 -140q0 -229 -340 -340h-100q-120 70 -120 180zM188 1153q43 31 115 2q26 -121 -25 -209l-4 -8l-64 24zM378 974l29 162l64 26l3 -8 q55 -87 32 -208q-84 -2 -128 28z" />
<glyph unicode="&#xf7;" horiz-adv-x="1124" />
<glyph unicode="&#xf8;" horiz-adv-x="1251" />
<glyph unicode="&#xf9;" horiz-adv-x="610" d="M48 266v42q0 276 60 276h20l40 -42l-20 -191l20 -22h20q275 213 340 213l40 -43l-20 -85l120 -127l-40 -43h-60q-100 94 -100 149h-20q-216 -191 -320 -191zM156 1172q37 81 102 54l147 -304l-35 -68l-10 10q-122 110 -204 308z" />
<glyph unicode="&#xfa;" horiz-adv-x="610" d="M48 266v42q0 276 60 276h20l40 -42l-20 -191l20 -22h20q275 213 340 213l40 -43l-20 -85l120 -127l-40 -43h-60q-100 94 -100 149h-20q-216 -191 -320 -191zM214 976l251 224q70 1 74 -88q-151 -152 -306 -208l-12 -5z" />
<glyph unicode="&#xfb;" horiz-adv-x="610" d="M48 266v42q0 276 60 276h20l40 -42l-20 -191l20 -22h20q275 213 340 213l40 -43l-20 -85l120 -127l-40 -43h-60q-100 94 -100 149h-20q-216 -191 -320 -191zM105 963q221 295 287 284l19 -3l167 -256l-5 -19l-51 -33l-19 3l-133 167q-181 -177 -213 -172l-39 6z" />
<glyph unicode="&#xfc;" horiz-adv-x="610" d="M48 266v42q0 276 60 276h20l40 -42l-20 -191l20 -22h20q275 213 340 213l40 -43l-20 -85l120 -127l-40 -43h-60q-100 94 -100 149h-20q-216 -191 -320 -191zM176 1145q43 31 115 2q26 -121 -25 -209l-4 -8l-64 24zM366 966l29 162l64 26l3 -8q55 -87 32 -208 q-84 -2 -128 28z" />
<glyph unicode="&#xfd;" horiz-adv-x="1024" />
<glyph unicode="&#xfe;" />
<glyph unicode="&#xff;" horiz-adv-x="1024" />
<glyph unicode="&#x152;" horiz-adv-x="2048" />
<glyph unicode="&#x153;" horiz-adv-x="1933" />
<glyph unicode="&#x178;" horiz-adv-x="1366" />
<glyph unicode="&#x2c6;" horiz-adv-x="495" d="M15 1013q221 295 287 284l19 -3l167 -256l-5 -19l-51 -33l-19 3l-133 167q-181 -177 -213 -172l-39 6z" />
<glyph unicode="&#x2dc;" horiz-adv-x="521" d="M40 1009l3 178l62 52q148 9 244 -109l21 69l-6 8l77 31q64 -90 -3 -216l-14 -13l-29 3q-218 130 -245 109q-25 -37 1 -88z" />
<glyph unicode="&#x2000;" horiz-adv-x="914" />
<glyph unicode="&#x2001;" horiz-adv-x="1829" />
<glyph unicode="&#x2002;" horiz-adv-x="914" />
<glyph unicode="&#x2003;" horiz-adv-x="1829" />
<glyph unicode="&#x2004;" horiz-adv-x="609" />
<glyph unicode="&#x2005;" horiz-adv-x="457" />
<glyph unicode="&#x2006;" horiz-adv-x="304" />
<glyph unicode="&#x2007;" horiz-adv-x="304" />
<glyph unicode="&#x2008;" horiz-adv-x="228" />
<glyph unicode="&#x2009;" horiz-adv-x="365" />
<glyph unicode="&#x200a;" horiz-adv-x="101" />
<glyph unicode="&#x2010;" horiz-adv-x="721" d="M43 477v60l29 40h515l71 20l29 -60v-20l-29 -60l-71 20h-458l-72 -20z" />
<glyph unicode="&#x2011;" horiz-adv-x="721" d="M43 477v60l29 40h515l71 20l29 -60v-20l-29 -60l-71 20h-458l-72 -20z" />
<glyph unicode="&#x2012;" horiz-adv-x="721" d="M43 477v60l29 40h515l71 20l29 -60v-20l-29 -60l-71 20h-458l-72 -20z" />
<glyph unicode="&#x2013;" />
<glyph unicode="&#x2014;" horiz-adv-x="2048" />
<glyph unicode="&#x2018;" horiz-adv-x="196" d="M54 851q-40 159 2 369q77 47 115 -12l-47 -333l-68 -38z" />
<glyph unicode="&#x2019;" horiz-adv-x="196" d="M54 851q-40 159 2 369q77 47 115 -12l-47 -333l-68 -38z" />
<glyph unicode="&#x201a;" horiz-adv-x="455" />
<glyph unicode="&#x201c;" horiz-adv-x="472" d="M113 851q-40 159 2 369q77 47 115 -12l-47 -333l-68 -38zM287 851q-39 159 3 369q76 47 114 -12l-47 -334l-67 -37z" />
<glyph unicode="&#x201d;" horiz-adv-x="472" d="M113 851q-40 159 2 369q77 47 115 -12l-47 -333l-68 -38zM287 851q-39 159 3 369q76 47 114 -12l-47 -334l-67 -37z" />
<glyph unicode="&#x201e;" horiz-adv-x="682" />
<glyph unicode="&#x2022;" horiz-adv-x="717" />
<glyph unicode="&#x2026;" horiz-adv-x="2048" />
<glyph unicode="&#x202f;" horiz-adv-x="365" />
<glyph unicode="&#x2039;" horiz-adv-x="682" />
<glyph unicode="&#x203a;" horiz-adv-x="682" />
<glyph unicode="&#x205f;" horiz-adv-x="457" />
<glyph unicode="&#x20ac;" horiz-adv-x="1308" d="M-119 602q0 6 6 13l-6 8q0 44 285 134l6 2q56 97 138 198q408 368 624 368h98q176 0 176 -144q-1 -3 -2 -7q2 -13 2 -27q-43 -176 -144 -176l-4 4q-14 -4 -30 -4l-16 16v16q4 5 7 11l-7 7v16q61 87 75 143l-103 30q-269 -20 -615 -395q155 38 278 48l2 -2q11 1 23 2 l12 -12l59 12h89l64 -64v-69l-103 -106q-11 0 -19 8l-6 -8q-32 0 -32 64h-32v16l4 5h-4v16l17 19q-240 -3 -454 -64q-70 -141 -92 -262q198 57 551 142l3 -4l22 4l48 -64q0 -7 -6 -13l6 -8q0 -58 -480 -112l-151 -57q28 -236 356 -245q286 15 648 224h16l7 -7q5 4 11 7h16 l32 -32v-32q-1 0 -1 -1l1 -1v-32q-389 -256 -800 -256l-1 1q-16 -1 -33 -1l-50 26l-28 -10l-18 6l-16 -6q-222 61 -251 316l-74 -28l-5 5l-20 -5l-32 32v53q0 19 126 61v64q13 87 50 178q-80 -34 -156 -76l-19 -9z" />
<glyph unicode="&#x2122;" horiz-adv-x="2048" />
<glyph unicode="&#x25fc;" horiz-adv-x="1195" d="M0 0v1195h1195v-1195h-1195z" />
</font>
</defs>
</svg>
